<svg width="190" height="52" viewBox="0 0 190 52" fill="none" xmlns="http://www.w3.org/2000/svg">
<g clip-path="url(#clip0_89_84)">
<path d="M0.940918 41.9159C0.940918 35.8412 4.664 31.8723 11.0055 31.8723C14.1558 31.8723 16.6515 32.6013 17.9198 33.5328V38.5141H15.2605L14.1149 35.3957C13.2557 35.0717 12.2329 34.9097 11.2101 34.9097C7.89613 34.9097 5.11404 36.9346 5.11404 41.8754C5.11404 46.2088 7.24152 49.0032 11.1283 49.0032C12.192 49.0032 13.2966 48.8007 14.1967 48.5172V45.5608L12.4784 44.9533V42.6044H19.5154V44.9938L17.8789 45.5608V50.3801C16.4879 51.2711 14.074 52.0405 10.9237 52.0405C4.62309 52 0.940918 47.9907 0.940918 41.9159Z" fill="#DDE2DF"/>
<path d="M28.6801 52C24.3024 52 21.3567 49.6916 21.3567 45.0343C21.3567 40.296 24.3433 38.0281 28.6801 38.0281C33.0169 38.0281 36.0036 40.296 36.0036 45.0343C36.0445 49.5296 33.0987 52 28.6801 52ZM28.6801 49.0842C31.0531 49.0842 32.1986 47.3022 32.1986 45.0343C32.1986 42.6449 31.0531 40.944 28.6801 40.944C26.3481 40.944 25.1616 42.6449 25.1616 45.0343C25.2025 47.3427 26.3481 49.0842 28.6801 49.0842Z" fill="#DDE2DF"/>
<path d="M39.6037 48.8006V33.6541L37.9263 33.0872V30.6978H43.0404V48.1121C43.0404 48.5171 43.2859 48.8411 43.6541 48.9626L44.7997 49.327V51.7165H42.0585C40.7084 51.7165 39.6037 50.623 39.6037 49.2865V48.8006Z" fill="#DDE2DF"/>
<path d="M57.7691 51.7164V49.57C56.8281 51.271 55.2325 51.9999 53.0232 51.9999C49.0137 51.9999 46.5999 49.5295 46.5999 44.9937C46.5999 40.4984 48.9728 38.028 53.0641 38.028C54.8643 38.028 56.419 38.514 57.4418 39.9719V33.6541L55.7644 33.0872V30.6978H60.9603V48.7601L62.6787 49.327V51.7164H57.7691ZM57.4827 44.8722C57.4418 42.2803 56.2553 40.9439 54.0051 40.9439C51.8367 40.9439 50.4457 42.1993 50.4457 45.0747C50.4457 47.7476 51.6731 49.1245 53.9642 49.1245C56.3781 49.1245 57.4827 47.7476 57.4827 45.0747V44.8722Z" fill="#DDE2DF"/>
<path d="M77.6939 44.8318V46.5732H68.1203C68.4476 47.8691 69.3476 49.0841 72.2934 49.0841C74.6254 49.0841 75.8119 48.5981 76.9165 48.1121L77.4075 50.8255C76.5483 51.352 74.9936 51.9595 71.7615 51.9595C67.1383 51.9595 64.479 49.2866 64.479 44.9938C64.479 40.9034 67.0565 37.947 71.3115 37.947C75.5255 38.028 77.6939 40.9034 77.6939 44.8318ZM68.1203 43.7383H74.2163C74.0117 42.3209 73.3571 40.9844 71.3524 40.9844C69.0612 40.9439 68.3248 42.2804 68.1203 43.7383Z" fill="#DDE2DF"/>
<path d="M90.5815 51.7165V43.4143C90.5815 41.8349 89.886 40.8629 88.4131 40.8629C86.4493 40.8629 85.181 42.6449 85.0991 44.7913V48.7601L86.8584 49.3271V51.7165H79.9441V49.3271L81.6624 48.7601V41.3084L80.2305 40.7009V38.3115H85.0991V40.7414C85.5083 39.162 87.1857 37.9875 89.2723 37.9875C91.5225 37.9875 93.9773 39.324 93.9773 43.1308V48.7196L95.982 49.2866V51.676H90.5815V51.7165Z" fill="#DDE2DF"/>
<path d="M104.124 41.9159C104.124 35.8817 107.806 31.8723 114.311 31.8723C116.888 31.8723 119.139 32.4798 120.284 33.2493V38.2306H117.625L116.52 35.1932C115.906 34.9907 115.17 34.9097 114.475 34.9097C110.301 34.9097 108.338 37.7041 108.338 41.8754C108.338 47.2212 111.652 48.8817 114.556 48.8817C116.193 48.8817 118.361 48.3552 119.67 47.3832L121.102 49.8131C119.711 51.0281 117.298 52.0405 114.147 52.0405C107.806 52 104.124 47.9907 104.124 41.9159Z" fill="#DDE2DF"/>
<path d="M133.826 42.9284H131.453L130.881 41.1464C129.571 41.4299 127.894 42.6449 127.894 45.5608V48.8006L130.226 49.3676V51.7165H122.739V49.3676L124.457 48.8006V41.3084L123.025 40.701V38.3115H127.649V41.5919C128.099 39.4455 129.817 37.8256 132.231 37.8256C132.845 37.8256 133.376 37.9471 133.826 38.0686V42.9284Z" fill="#DDE2DF"/>
<path d="M142.664 52C138.286 52 135.34 49.6916 135.34 45.0343C135.34 40.296 138.327 38.0281 142.664 38.0281C147.001 38.0281 149.987 40.296 149.987 45.0343C149.987 49.5296 147.041 52 142.664 52ZM142.664 49.0842C145.037 49.0842 146.182 47.3022 146.182 45.0343C146.182 42.6449 145.037 40.944 142.664 40.944C140.332 40.944 139.145 42.6449 139.145 45.0343C139.145 47.3427 140.291 49.0842 142.664 49.0842Z" fill="#DDE2DF"/>
<path d="M165.984 48.6387L167.784 41.3084L166.925 40.7415V38.3521H172.407V40.7415L171.098 41.3084L167.907 51.7165H164.061L161.729 43.4549L159.233 51.7165H155.388L152.524 41.3084L151.174 40.7415V38.3521H157.147V40.7415L156.001 41.3084L157.597 48.6387L160.256 38.6355H163.529L165.984 48.6387Z" fill="#DDE2DF"/>
<path d="M184.559 51.7165V43.4143C184.559 41.8349 183.863 40.8629 182.39 40.8629C180.426 40.8629 179.117 42.6449 179.076 44.7913V48.7601L180.835 49.3271V51.7165H173.921V49.3271L175.639 48.7601V41.3084L174.208 40.7009V38.3115H179.076V40.7414C179.485 39.162 181.163 37.9875 183.249 37.9875C185.5 37.9875 187.954 39.324 187.954 43.1308V48.7196L189.959 49.2866V51.676H184.559V51.7165Z" fill="#DDE2DF"/>
<path d="M94.3864 0L93.0771 1.74143L94.3864 3.52336L95.7365 1.74143L94.3864 0Z" fill="#EB303A"/>
<path d="M83.5853 1.29602L82.5625 3.28044L84.199 4.73839L85.2219 2.79446L83.5853 1.29602Z" fill="#EB303A"/>
<path d="M105.31 1.29602L106.333 3.28044L104.655 4.73839L103.674 2.79446L105.31 1.29602Z" fill="#EB303A"/>
<path d="M116.479 3.96887L116.929 6.11529L114.966 7.12775L114.516 4.98133L116.479 3.96887Z" fill="#EB303A"/>
<path d="M72.3341 3.96887L71.884 6.11529L73.8479 7.12775L74.2979 4.98133L72.3341 3.96887Z" fill="#EB303A"/>
<path d="M94.3864 17.2928C88.3313 17.2928 82.808 18.3458 78.594 20.0467L80.0669 24.0156C83.5036 22.5171 88.6586 21.5857 94.4273 21.5857C100.196 21.5857 105.31 22.5171 108.788 24.0156L110.261 20.0467C106.006 18.3458 100.442 17.2928 94.3864 17.2928ZM81.9489 22.1932L80.7624 21.5857L81.0488 20.2897L82.2352 20.8972L81.9489 22.1932ZM88.1676 20.8567L87.1857 19.9657L87.7994 18.7913L88.7813 19.6823L88.1676 20.8567ZM94.3046 20.2897L93.4863 19.2368L94.3046 18.1838L95.1228 19.2368L94.3046 20.2897ZM100.442 20.8567L99.8278 19.6823L100.81 18.7913L101.423 19.9657L100.442 20.8567ZM106.619 22.1932L106.333 20.8972L107.519 20.2897L107.806 21.5857L106.619 22.1932Z" fill="#F79E11"/>
<path d="M94.3863 16.4018C100.81 16.4018 106.578 17.5358 110.506 19.3582L114.515 8.14016L106.046 17.2928L104.328 6.15574L98.3139 15.7539L94.3863 5.26477L90.4586 15.7539L84.4444 6.15574L82.7261 17.2928L74.2571 8.14016L78.2666 19.3582C82.1942 17.5763 87.9629 16.4018 94.3863 16.4018Z" fill="#F79E11"/>
<path d="M0 40.9844C0 34.9096 3.72308 30.9408 10.0646 30.9408C13.2149 30.9408 15.7106 31.6698 16.9789 32.6012V37.5825H14.3196L13.174 34.4642C12.3148 34.1402 11.292 33.9782 10.2692 33.9782C6.95521 33.9782 4.17313 36.0031 4.17313 40.9439C4.17313 45.2772 6.3006 48.0716 10.1873 48.0716C11.2511 48.0716 12.3557 47.8691 13.2558 47.5857V44.6293L11.5375 44.0218V41.6729H18.5745V44.0623L16.938 44.6293V49.4486C15.5469 50.3396 13.1331 51.109 9.98277 51.109C3.68217 51.0685 0 47.0592 0 40.9844Z" fill="#27AE60"/>
<path d="M27.78 51.0685C23.4023 51.0685 20.4565 48.7601 20.4565 44.1028C20.4565 39.3645 23.4432 37.0966 27.78 37.0966C32.1168 37.0966 35.1034 39.3645 35.1034 44.1028C35.1034 48.6386 32.1577 51.0685 27.78 51.0685ZM27.78 48.1526C30.1529 48.1526 31.2985 46.3707 31.2985 44.1028C31.2985 41.7134 30.1529 40.0124 27.78 40.0124C25.4479 40.0124 24.2615 41.7134 24.2615 44.1028C24.2615 46.4112 25.407 48.1526 27.78 48.1526Z" fill="#27AE60"/>
<path d="M38.6628 47.8692V32.7227L36.9854 32.1558V29.7664H42.0995V47.1807C42.0995 47.5857 42.3449 47.9097 42.7132 48.0312L43.8178 48.3956V50.785H41.0766C39.7265 50.785 38.6219 49.6916 38.6219 48.3551V47.8692H38.6628Z" fill="#27AE60"/>
<path d="M56.8691 50.785V48.6386C55.9281 50.2991 54.3324 51.0685 52.1641 51.0685C48.1546 51.0685 45.7407 48.5981 45.7407 44.0623C45.7407 39.567 48.1137 37.0966 52.205 37.0966C54.0051 37.0966 55.5598 37.5826 56.5827 39.0405V32.7227L54.9052 32.1558V29.7664H60.1012V47.8287L61.8195 48.3956V50.785H56.8691ZM56.5417 43.9408C56.5008 41.3489 55.3144 40.0125 53.0641 40.0125C50.8958 40.0125 49.5047 41.2679 49.5047 44.1433C49.5047 46.8162 50.7321 48.1931 53.0232 48.1931C55.4371 48.1931 56.5417 46.8162 56.5417 44.1433V43.9408Z" fill="#27AE60"/>
<path d="M76.7527 43.9002V45.6417H67.1791C67.5064 46.9376 68.4065 48.1526 71.3522 48.1526C73.6843 48.1526 74.8707 47.6666 75.9754 47.1806L76.4663 49.894C75.6072 50.4205 74.0525 51.028 70.8203 51.028C66.1972 51.028 63.5378 48.3551 63.5378 44.0622C63.5378 39.9719 66.1154 37.0155 70.3703 37.0155C74.5843 37.0965 76.7527 39.9719 76.7527 43.9002ZM67.1791 42.8068H73.2751C73.0706 41.3893 72.416 40.0529 70.4112 40.0529C68.161 40.0124 67.4246 41.3488 67.1791 42.8068Z" fill="#27AE60"/>
<path d="M89.6403 50.785V42.5233C89.6403 40.9439 88.9448 39.9719 87.4719 39.9719C85.5081 39.9719 84.2398 41.7538 84.158 43.9003V47.8691L85.9172 48.4361V50.8255H79.0029V48.4361L80.7213 47.8691V40.3769L79.2893 39.7694V37.38H84.158V39.8099C84.5671 38.2305 86.2445 37.056 88.3311 37.056C90.5813 37.056 93.0361 38.3925 93.0361 42.1993V47.7881L95.0408 48.3551V50.7445H89.6403V50.785Z" fill="#27AE60"/>
<path d="M103.183 40.9844C103.183 34.9501 106.865 30.9408 113.37 30.9408C115.947 30.9408 118.198 31.5483 119.343 32.3177V37.2991H116.684L115.579 34.2617C114.966 34.0592 114.229 33.9782 113.534 33.9782C109.36 33.9782 107.397 36.7726 107.397 40.9439C107.397 46.2897 110.711 47.9501 113.615 47.9501C115.252 47.9501 117.42 47.4237 118.73 46.4517L120.162 48.8816C118.77 50.0966 116.357 51.109 113.206 51.109C106.865 51.0685 103.183 47.0592 103.183 40.9844Z" fill="#27AE60"/>
<path d="M132.886 41.997H130.513L129.94 40.215C128.631 40.4985 126.953 41.7135 126.953 44.6294V47.8692L129.285 48.4362V50.7851H121.798V48.4362L123.516 47.8692V40.377L122.084 39.7696V37.3801H126.667V40.6605C127.117 38.5141 128.835 36.8942 131.249 36.8942C131.863 36.8942 132.395 37.0157 132.845 37.1372V41.997H132.886Z" fill="#27AE60"/>
<path d="M141.723 51.0685C137.345 51.0685 134.399 48.7601 134.399 44.1028C134.399 39.3645 137.386 37.0966 141.723 37.0966C146.059 37.0966 149.046 39.3645 149.046 44.1028C149.046 48.6386 146.1 51.0685 141.723 51.0685ZM141.723 48.1526C144.096 48.1526 145.241 46.3707 145.241 44.1028C145.241 41.7134 144.096 40.0124 141.723 40.0124C139.391 40.0124 138.204 41.7134 138.204 44.1028C138.204 46.4112 139.391 48.1526 141.723 48.1526Z" fill="#27AE60"/>
<path d="M165.043 47.7071L166.843 40.3769L165.984 39.8099V37.4205H171.507V39.8099L170.157 40.3769L167.007 50.785H163.161L160.788 42.5233L158.292 50.785H154.446L151.583 40.3769L150.232 39.8099V37.4205H156.206V39.8099L155.06 40.3769L156.656 47.7071L159.315 37.704H162.588L165.043 47.7071Z" fill="#27AE60"/>
<path d="M183.618 50.785V42.5233C183.618 40.9439 182.922 39.9719 181.449 39.9719C179.485 39.9719 178.176 41.7538 178.135 43.9003V47.8691L179.895 48.4361V50.8255H172.98V48.4361L174.699 47.8691V40.3769L173.267 39.7694V37.38H178.135V39.8099C178.544 38.2305 180.222 37.056 182.308 37.056C184.559 37.056 187.013 38.3925 187.013 42.1993V47.7881L189.018 48.3551V50.7445H183.618V50.785Z" fill="#27AE60"/>
</g>
<defs>
<clipPath id="clip0_89_84">
<rect width="190" height="52" fill="white"/>
</clipPath>
</defs>
</svg>
